<svg width="201" height="40" viewBox="0 0 201 40" fill="none" xmlns="http://www.w3.org/2000/svg">
<g clip-path="url(#clip0_2294_22351)">
<path d="M83.4274 10.1984V11.327C85.3919 10.3238 87.3981 9.82227 89.3626 9.82227C92.163 9.82227 94.4619 10.7836 96.3427 12.7063C98.1818 14.629 99.1014 17.0532 99.1014 19.979C99.1014 22.863 98.14 25.2873 96.2592 27.2935C94.3783 29.2998 92.0376 30.2611 89.279 30.2611C87.3981 30.2611 85.4337 29.7596 83.4274 28.7982V39.9999H81.3375V10.1984H83.4274ZM83.4274 13.3332V26.7502C85.2247 27.7533 87.022 28.2131 88.861 28.2131C91.2017 28.2131 93.1244 27.4607 94.5873 25.9978C96.0502 24.4931 96.7607 22.5704 96.7607 20.1462C96.7607 17.7638 96.0084 15.7575 94.4619 14.211C92.9154 12.6645 90.9509 11.8703 88.6102 11.8703C86.8966 11.8703 85.1829 12.3719 83.4274 13.3332Z" fill="#F6F6F6"/>
<path d="M104.66 0V29.9269H102.529V0H104.66Z" fill="#F6F6F6"/>
<path d="M124.681 26.4994V28.2549C122.884 29.6342 121.547 30.303 120.711 30.303C120.209 30.303 119.875 30.1358 119.707 29.8014C119.54 29.467 119.373 28.8401 119.289 27.8369C117.2 29.467 115.152 30.2612 113.103 30.2612C111.599 30.2612 110.345 29.7596 109.342 28.7983C108.297 27.8369 107.795 26.6666 107.795 25.2455C107.795 23.1139 108.798 21.4002 110.763 20.188C112.727 18.9341 115.569 18.2236 119.248 18.0564V15.5485C119.248 12.8735 117.785 11.536 114.859 11.536C113.02 11.536 111.014 12.3719 108.84 14.0438V11.8704C111.055 10.4911 113.187 9.78052 115.193 9.78052C116.991 9.78052 118.454 10.2403 119.624 11.118C120.794 11.9958 121.379 13.2915 121.379 14.9216V27.21C121.379 27.8787 121.547 28.2131 121.839 28.2131C122.299 28.2549 123.218 27.6698 124.681 26.4994ZM119.289 26.0397V19.8955C116.573 19.8119 114.357 20.2716 112.56 21.3166C110.763 22.3615 109.885 23.699 109.885 25.3291C109.885 26.2486 110.261 27.001 111.014 27.628C111.766 28.2549 112.685 28.5893 113.814 28.5893C115.611 28.5893 117.45 27.7116 119.289 26.0397Z" fill="#F6F6F6"/>
<path d="M128.694 10.1984V13.6258H128.777C130.408 11.0762 132.581 9.82227 135.256 9.82227C137.471 9.82227 139.269 10.5328 140.606 11.9539C141.944 13.375 142.612 15.3395 142.612 17.8891V29.9268H140.522V18.6833C140.522 14.1274 138.725 11.8703 135.172 11.8703C132.539 11.8703 130.408 13.2914 128.736 16.0919V29.9268H126.646V10.1984H128.694Z" fill="#F6F6F6"/>
<path d="M148.966 10.1984V13.6258H149.049C150.679 11.0762 152.853 9.82227 155.528 9.82227C157.743 9.82227 159.54 10.5328 160.878 11.9539C162.215 13.375 162.884 15.3395 162.884 17.8891V29.9268H160.794V18.6833C160.794 14.1274 158.997 11.8703 155.444 11.8703C152.811 11.8703 150.679 13.2914 149.007 16.0919V29.9268H146.917V10.1984H148.966Z" fill="#F6F6F6"/>
<path d="M183.908 19.3522H168.359C168.318 19.6866 168.276 20.0209 168.276 20.3971C168.276 22.6124 169.07 24.4515 170.617 25.998C172.205 27.5445 174.044 28.2968 176.176 28.2968C178.683 28.2968 181.108 27.3355 183.49 25.371V27.7534C181.233 29.5089 178.725 30.3867 175.925 30.3867C173.083 30.3867 170.742 29.3835 168.861 27.4191C167.022 25.4546 166.061 22.9468 166.061 19.8956C166.061 17.0115 166.938 14.6291 168.652 12.7482C170.366 10.8673 172.539 9.90601 175.131 9.90601C177.555 9.90601 179.645 10.742 181.317 12.4556C183.03 14.0857 183.908 16.4264 183.908 19.3522ZM168.652 17.6385H181.4C180.648 13.7932 178.6 11.8705 175.172 11.8705C173.542 11.8705 172.163 12.372 170.993 13.3752C169.822 14.4201 169.028 15.8412 168.652 17.6385Z" fill="#F6F6F6"/>
<path d="M200.794 12.1629L199.582 14.1274C197.952 12.6227 196.614 11.8703 195.611 11.8703C193.647 11.8703 191.515 13.7512 189.3 17.513V29.885H187.21V10.1984H189.3V15.3813H189.384C191.724 11.6613 194.023 9.82227 196.28 9.82227C197.576 9.82227 199.08 10.6164 200.794 12.1629Z" fill="#F6F6F6"/>
<path d="M36.1964 20.1881C36.1964 30.1776 28.0878 38.2863 18.0982 38.2863C8.10867 38.2445 0 30.1776 0 20.1881C0 10.1985 8.10867 2.08984 18.0982 2.08984C28.0878 2.08984 36.1964 10.1985 36.1964 20.1881Z" fill="#B4222C"/>
<path d="M28.7147 10.5748L18.8924 25.0784H28.5058V30.4285H7.48172V29.7597L17.3041 15.2979H8.31767V9.90601H28.7147V10.5748Z" fill="white"/>
<path d="M51.6614 21.7763H37.4504C37.7429 22.9884 38.4117 23.9915 39.4984 24.7857C40.5852 25.5798 41.7973 25.956 43.1766 25.956C45.559 25.956 48.2341 25.2873 51.1181 23.9497V28.3803C50.0731 28.9236 48.8192 29.4252 47.3145 29.8432C45.8098 30.3029 43.9289 30.5119 41.6301 30.5119C39.1641 30.5119 37.0324 30.0522 35.2769 29.1326C33.5214 28.2131 32.2257 26.9592 31.348 25.3709C30.4702 23.7826 30.0522 21.9853 30.0522 19.979C30.0522 18.0145 30.4702 16.2173 31.348 14.6708C32.2257 13.1243 33.5214 11.8703 35.2769 10.9926C37.0742 10.0313 39.2058 9.61328 41.6719 9.61328C43.302 9.61328 44.8903 9.94766 46.395 10.6582C47.8997 11.3688 49.1536 12.5391 50.1567 14.1274C51.1599 15.7157 51.6196 17.8055 51.6196 20.3552V21.7763H51.6614ZM44.9739 18.2235C44.9739 16.9278 44.6395 15.8829 44.0125 15.1305C43.3856 14.3782 42.466 13.9602 41.2539 13.9602C40.0836 13.9602 39.1223 14.3364 38.3699 15.1305C37.6176 15.9247 37.2832 16.9278 37.2832 18.2235H44.9739Z" fill="#F6F6F6"/>
<path d="M76.0292 30.1357H68.8819V19.6446V19.2267C68.8819 18.0981 68.7147 17.1368 68.3386 16.3426C67.9624 15.5067 67.1682 15.0887 65.9561 15.0887C65.3709 15.0887 64.8694 15.2141 64.4096 15.4231C63.9498 15.6321 63.5737 15.9247 63.2393 16.259C62.9049 16.5934 62.6123 16.9278 62.3615 17.2622C62.1108 17.5966 61.86 17.9309 61.6092 18.2653V30.094H54.4619V9.94766H61.6092V12.8317C62.7377 11.6196 63.8662 10.7836 64.9948 10.3238C66.1233 9.82227 67.3772 9.61328 68.7565 9.61328C73.605 9.61328 75.9875 12.4973 75.9875 18.3071V30.1357H76.0292Z" fill="#F6F6F6"/>
</g>
<defs>
<clipPath id="clip0_2294_22351">
<rect width="200.794" height="40" fill="white"/>
</clipPath>
</defs>
</svg>
