<svg width="224" height="40" viewBox="0 0 224 40" fill="none" xmlns="http://www.w3.org/2000/svg">
<g clip-path="url(#clip0_2294_22349)">
<path d="M72.5686 12.132L67.9351 13.5422C67.756 12.6021 67.286 11.7291 66.5249 10.9681C65.7415 10.1846 64.6223 9.80411 63.1226 9.80411C61.8915 9.80411 60.9066 10.1399 60.1231 10.789C59.3397 11.4605 58.9592 12.2439 58.9592 13.1617C58.9592 14.7733 59.9217 15.7806 61.8467 16.1611L65.54 16.8774C67.8903 17.3251 69.7034 18.2652 71.0017 19.6754C72.3 21.0856 72.9491 22.7644 72.9491 24.6894C72.9491 26.883 72.0761 28.808 70.3526 30.442C68.629 32.0761 66.3011 32.8819 63.3688 32.8819C61.69 32.8819 60.1903 32.6357 58.8473 32.1432C57.5042 31.6508 56.4074 30.9793 55.6016 30.1511C54.7734 29.3229 54.1466 28.4275 53.6766 27.4874C53.2065 26.5473 52.9379 25.5847 52.826 24.5775L57.6161 23.3016C57.7504 24.7118 58.2877 25.8981 59.2725 26.8606C60.2574 27.8007 61.6452 28.2708 63.4136 28.2708C64.7566 28.2708 65.8086 27.9798 66.5697 27.3755C67.3307 26.7711 67.7113 25.9877 67.7113 25.0251C67.7113 24.2417 67.4203 23.5926 66.8607 23.033C66.3011 22.4734 65.5177 22.0929 64.488 21.8914L60.7947 21.1527C58.6458 20.7051 56.9446 19.8097 55.7135 18.4891C54.46 17.1684 53.8333 15.512 53.8333 13.5422C53.8333 11.1919 54.7286 9.22212 56.5417 7.63287C58.3548 6.04361 60.526 5.23779 63.0778 5.23779C64.5999 5.23779 65.9653 5.46163 67.1517 5.86454C68.338 6.28984 69.3005 6.84943 70.0392 7.56572C70.7555 8.282 71.3151 8.99829 71.718 9.75934C72.1209 10.5204 72.3895 11.3038 72.5686 12.132Z" fill="#F6F6F6"/>
<path d="M86.648 32.3224C86.5585 31.83 86.4914 31.1584 86.4914 30.3302C86.0213 31.1584 85.305 31.7628 84.3873 32.1881C83.4471 32.591 82.4623 32.8149 81.4102 32.8149C79.239 32.8149 77.5378 32.121 76.2843 30.7331C75.0308 29.3453 74.4041 27.6218 74.4041 25.5625V13.9229H79.3733V24.5552C79.3733 25.652 79.6643 26.5474 80.2239 27.2189C80.8058 27.9128 81.6341 28.2485 82.7309 28.2485C83.8053 28.2485 84.6559 27.9128 85.2826 27.2636C85.9094 26.5921 86.2227 25.7192 86.2227 24.6223V13.9229H91.192V28.9872C91.192 30.1512 91.2591 31.2704 91.371 32.3224H86.648Z" fill="#F6F6F6"/>
<path d="M93.2513 33.3297L97.7504 32.1433C97.9295 33.173 98.3996 34.0012 99.1606 34.6503C99.9441 35.2994 100.884 35.6128 102.048 35.6128C105.316 35.6128 106.95 33.9116 106.95 30.4869V29.1439C106.525 29.8154 105.876 30.375 105.003 30.8227C104.13 31.2703 103.078 31.4942 101.824 31.4942C99.3845 31.4942 97.3475 30.6436 95.7135 28.9424C94.0795 27.2413 93.2737 25.1148 93.2737 22.5406C93.2737 20.056 94.0795 17.9296 95.7135 16.1836C97.3251 14.4377 99.3845 13.5647 101.847 13.5647C103.19 13.5647 104.309 13.8109 105.204 14.3034C106.1 14.7958 106.726 15.3778 107.085 16.0717V13.9005H111.875V30.3302C111.875 33.1058 111.069 35.389 109.48 37.2245C107.89 39.0599 105.473 39.9777 102.227 39.9777C99.8098 39.9777 97.7728 39.3285 96.1388 38.0303C94.4824 36.7544 93.5423 35.1875 93.2513 33.3297ZM102.697 27.2413C103.973 27.2413 105.003 26.816 105.831 25.9654C106.637 25.1148 107.04 23.9732 107.04 22.563C107.04 21.1752 106.614 20.0336 105.786 19.2054C104.958 18.3548 103.928 17.9296 102.697 17.9296C101.421 17.9296 100.369 18.3548 99.5412 19.2054C98.713 20.056 98.2877 21.1752 98.2877 22.563C98.2877 23.9732 98.6906 25.1148 99.5188 25.9654C100.325 26.816 101.399 27.2413 102.697 27.2413Z" fill="#F6F6F6"/>
<path d="M127.678 30.0392V29.8153C127.275 30.7107 126.626 31.4494 125.686 32.009C124.768 32.5686 123.693 32.8596 122.507 32.8596C119.843 32.8596 117.672 31.9418 115.993 30.084C114.337 28.2037 113.486 25.8758 113.486 23.0554C113.486 20.3022 114.315 18.019 115.949 16.1836C117.583 14.3481 119.731 13.408 122.35 13.408C123.828 13.408 124.992 13.6989 125.865 14.2809C126.738 14.8629 127.32 15.512 127.633 16.2059V13.9228H132.468V28.9871C132.468 30.1063 132.513 31.2255 132.625 32.3223H127.879C127.745 31.6284 127.678 30.8674 127.678 30.0392ZM119.799 19.1382C118.948 20.1007 118.5 21.399 118.5 23.0554C118.5 24.7118 118.926 26.0325 119.799 27.0397C120.672 28.047 121.768 28.5618 123.111 28.5618C124.432 28.5618 125.529 28.047 126.357 27.0397C127.208 26.0325 127.633 24.7118 127.633 23.0554C127.633 21.399 127.208 20.1007 126.379 19.1382C125.551 18.1757 124.454 17.7057 123.111 17.7057C121.768 17.7057 120.649 18.1757 119.799 19.1382Z" fill="#F6F6F6"/>
<path d="M140.884 13.9227V16.8773C140.929 15.982 141.265 15.2209 141.891 14.5942C142.518 13.9674 143.279 13.6541 144.219 13.6541C145.137 13.6541 145.921 13.9674 146.57 14.6166C147.219 15.2433 147.532 16.0491 147.532 16.9893C147.532 17.9294 147.219 18.7352 146.57 19.3619C145.921 19.9887 145.137 20.3245 144.219 20.3245C143.302 20.3245 142.518 20.0111 141.891 19.4067C141.265 18.8023 140.929 18.0413 140.884 17.1459V32.3222H135.915V13.9227H140.884Z" fill="#F6F6F6"/>
<path d="M179.407 9.60278H174.505L170.677 24.309L165.932 9.60278H161.119L156.419 24.2418L152.569 9.78185L152.524 9.60278H147.465L153.688 32.0538L153.755 32.2329H158.59L163.492 17.0118L168.372 32.2329H173.162L179.34 9.91616L179.407 9.60278Z" fill="#2296F3"/>
<path d="M190.666 9.15503C187.487 9.15503 184.734 10.2518 182.473 12.4007C180.213 14.5719 179.049 17.4371 179.049 20.9513C179.049 24.4432 180.19 27.3084 182.473 29.4572C184.734 31.6061 187.487 32.7029 190.666 32.7029C193.867 32.7029 196.62 31.6061 198.881 29.4572C201.142 27.286 202.306 24.4208 202.306 20.9513C202.306 17.4371 201.164 14.5719 198.881 12.4007C196.62 10.2295 193.867 9.15503 190.666 9.15503ZM197.359 20.9066C197.359 23.1897 196.687 24.9581 195.367 26.1892C194.046 27.4203 192.457 28.047 190.666 28.047C188.875 28.047 187.308 27.4203 185.988 26.1892C184.667 24.9581 183.996 23.1897 183.996 20.9066C183.996 18.6234 184.667 16.8551 185.988 15.624C187.308 14.3929 188.875 13.7661 190.666 13.7661C192.479 13.7661 194.046 14.3929 195.367 15.624C196.687 16.8551 197.359 18.6458 197.359 20.9066Z" fill="#2296F3"/>
<path d="M220.683 12.5798C218.601 10.5428 215.87 9.51318 212.557 9.51318H204.298V32.3224H212.535C215.825 32.3224 218.579 31.2927 220.66 29.2558C222.764 27.2188 223.816 24.4209 223.816 20.929C223.839 17.4371 222.787 14.6167 220.683 12.5798ZM218.713 20.929C218.713 23.1226 218.109 24.8014 216.945 25.943C215.758 27.0845 214.236 27.6665 212.401 27.6665H209.289V14.169H212.423C214.236 14.169 215.758 14.751 216.945 15.8926C218.109 17.0566 218.713 18.7577 218.713 20.929Z" fill="#2296F3"/>
<path d="M7.05092 38.1421H31.1136C35.0084 38.1421 38.1645 34.986 38.1645 31.0912V7.05092C38.1645 3.15613 35.0084 0 31.1136 0H7.05092C3.15613 0 0 3.15613 0 7.05092V31.1136C0 34.986 3.15613 38.1421 7.05092 38.1421Z" fill="#2296F3"/>
<path d="M4.76776 30.5094C4.76776 32.0986 6.04364 33.3745 7.6329 33.3745H13.9228L4.76776 24.2195V30.5094Z" fill="white"/>
<path d="M4.76776 20.1233L17.9966 33.3745H25.54L4.76776 12.6023V20.1233Z" fill="white"/>
<path d="M12.6021 4.76782L21.108 13.2737L15.3106 19.0711L19.0711 22.8316L24.8685 17.0342L33.3744 25.5401V17.9967L20.1231 4.76782H12.6021Z" fill="white"/>
<path d="M30.5092 4.76782H24.2194L33.3744 13.9228V7.63296C33.3744 6.0437 32.0761 4.76782 30.5092 4.76782Z" fill="white"/>
</g>
<defs>
<clipPath id="clip0_2294_22349">
<rect width="223.839" height="40" fill="white"/>
</clipPath>
</defs>
</svg>
