<svg xmlns="http://www.w3.org/2000/svg" version="1.1" xmlns:xlink="http://www.w3.org/1999/xlink" width="36" height="36"><svg xmlns="http://www.w3.org/2000/svg" version="1.1" xmlns:xlink="http://www.w3.org/1999/xlink" width="36" height="36"><svg width="36" height="36" viewBox="0 0 36 36" fill="none" xmlns="http://www.w3.org/2000/svg">
<path d="M6.65103 36.002H29.349C33.0229 36.002 36 33.023 36 29.3467V6.6553C36 2.97904 33.0229 0 29.349 0H6.65103C2.97713 0 0 2.97904 0 6.6553V29.3678C0 33.023 2.97713 36.002 6.65103 36.002Z" fill="#2296F3"></path>
<path d="M4.49744 28.7974C4.49744 30.2975 5.70096 31.5018 7.20008 31.5018H13.1332L4.49744 22.8605V28.7974Z" fill="white"></path>
<path d="M4.49744 18.994L16.976 31.5018H24.0916L4.49744 11.895V18.994Z" fill="white"></path>
<path d="M11.8875 4.50024L19.9109 12.5289L14.4423 18.001L17.9895 21.5505L23.4581 16.0784L31.4816 24.107V16.9869L18.9819 4.50024H11.8875Z" fill="white"></path>
<path d="M28.779 4.50024H22.8458L31.4816 13.1416V7.20462C31.4816 5.70454 30.257 4.50024 28.779 4.50024Z" fill="white"></path>
</svg></svg><style>@media (prefers-color-scheme: light) { :root { filter: none; } }
@media (prefers-color-scheme: dark) { :root { filter: none; } }
</style></svg>